<svg viewBox="0 0 525.68 93.71" xmlns="http://www.w3.org/2000/svg"><g fill="#d21f3f"><path d="m28.71 44.11h43.51v7.25h-43.51z"/><path d="m14.21 57.73h50.76v7.25h-50.76z"/><path d="m14.21 28.72h50.76v7.25h-50.76z"/><path d="m14.21 35.98h7.25v21.76h-7.25z"/><path d="m72.22 14.22h7.25v65.27h-7.25z"/><path d="m14.21 14.22h58.01v7.25h-58.01z"/><path d="m14.21 72.23h58.01v7.25h-58.01z"/><path d="m89.64 14.22h43.11v10.97h-43.11z"/><path d="m154.7 14.22h32.14v10.97h-32.14z"/><path d="m197.81 14.22h43.11v10.97h-43.11z"/><path d="m251.89 14.22h43.11v10.97h-43.11z"/><path d="m197.81 41.73h43.11v10.97h-43.11z"/><path d="m197.81 68.46h43.11v10.97h-43.11z"/><path d="m305.98 14.28h43.11v10.97h-43.11z"/><path d="m305.98 41.78h43.11v10.97h-43.11z"/><path d="m305.98 68.51h43.11v10.97h-43.11z"/><path d="m360.06 14.28h43.11v10.97h-43.11z"/><path d="m371.03 41.78h21.17v10.97h-21.17z"/><path d="m360.06 68.51h43.11v10.97h-43.11z"/><path d="m154.7 41.34h32.14v10.97h-32.14z"/><path d="m89.64 68.46h43.11v10.97h-43.11z"/><path d="m73.49 41.33h43.28v10.97h-43.28z" transform="matrix(0 1 -1 0 141.95 -48.31)"/><path d="m116.61 41.34h65.21v10.97h-65.21z" transform="matrix(0 1 -1 0 196.04 -102.39)"/><path d="m246.25 46.75h54.39v10.97h-54.39z" transform="matrix(0 1 -1 0 325.68 -221.22)"/><path d="m468.23 14.22h43.11v10.97h-43.11z"/><path d="m462.59 46.75h54.39v10.97h-54.39z" transform="matrix(0 1 -1 0 542.02 -437.55)"/><path d="m343.81 41.29h43.48v10.97h-43.48z" transform="matrix(0 1 -1 0 412.32 -318.77)"/><path d="m375.95 41.29h43.48v10.97h-43.48z" transform="matrix(0 1 -1 0 444.46 -350.91)"/><path d="m414.15 14.28h43.11v10.97h-43.11z"/><path d="m414.15 68.51h43.11v10.97h-43.11z"/><path d="m397.89 41.29h43.48v10.97h-43.48z" transform="matrix(0 1 -1 0 466.41 -372.86)"/><path d="m430.03 41.29h43.48v10.97h-43.48z" transform="matrix(0 1 -1 0 498.55 -405)"/><path d="m158.6 57.64h31.32v10.97h-31.32z" transform="matrix(.5 .8660254 -.8660254 .5 141.8 -119.35)"/><path d="m173.28 27.78h16.15v10.97h-16.15z" transform="matrix(0 1 -1 0 214.62 -148.09)"/><path d="m89.64 14.22h43.11v10.97h-43.11z"/><path d="m154.7 14.22h32.14v10.97h-32.14z"/><path d="m197.81 14.22h43.11v10.97h-43.11z"/><path d="m251.89 14.22h43.11v10.97h-43.11z"/><path d="m197.81 41.73h43.11v10.97h-43.11z"/><path d="m197.81 68.46h43.11v10.97h-43.11z"/><path d="m305.98 14.28h43.11v10.97h-43.11z"/><path d="m305.98 41.78h43.11v10.97h-43.11z"/><path d="m305.98 68.51h43.11v10.97h-43.11z"/><path d="m360.06 14.28h43.11v10.97h-43.11z"/><path d="m371.03 41.78h21.17v10.97h-21.17z"/><path d="m360.06 68.51h43.11v10.97h-43.11z"/><path d="m154.7 41.34h32.14v10.97h-32.14z"/><path d="m89.64 68.46h43.11v10.97h-43.11z"/><path d="m73.49 41.33h43.28v10.97h-43.28z" transform="matrix(0 1 -1 0 141.95 -48.31)"/><path d="m116.61 41.34h65.21v10.97h-65.21z" transform="matrix(0 1 -1 0 196.04 -102.39)"/><path d="m246.25 46.75h54.39v10.97h-54.39z" transform="matrix(0 1 -1 0 325.68 -221.22)"/><path d="m468.23 14.22h43.11v10.97h-43.11z"/><path d="m462.59 46.75h54.39v10.97h-54.39z" transform="matrix(0 1 -1 0 542.02 -437.55)"/><path d="m343.81 41.29h43.48v10.97h-43.48z" transform="matrix(0 1 -1 0 412.32 -318.77)"/><path d="m375.95 41.29h43.48v10.97h-43.48z" transform="matrix(0 1 -1 0 444.46 -350.91)"/><path d="m414.15 14.28h43.11v10.97h-43.11z"/><path d="m414.15 68.51h43.11v10.97h-43.11z"/><path d="m397.89 41.29h43.48v10.97h-43.48z" transform="matrix(0 1 -1 0 466.41 -372.86)"/><path d="m430.03 41.29h43.48v10.97h-43.48z" transform="matrix(0 1 -1 0 498.55 -405)"/><path d="m158.6 57.64h31.32v10.97h-31.32z" transform="matrix(.5 .8660254 -.8660254 .5 141.8 -119.35)"/><path d="m173.28 27.78h16.15v10.97h-16.15z" transform="matrix(0 1 -1 0 214.62 -148.09)"/></g></svg>